<svg xmlns="http://www.w3.org/2000/svg" viewBox="0 0 1100 760" role="img" aria-labelledby="title desc">
  <title id="title">ITESICWS IA aplicada</title>
  <desc id="desc">Interfaz conceptual de asistente IA conectado a documentos, datos y reportes</desc>
  <defs>
    <linearGradient id="panel" x1="0" x2="1" y1="0" y2="1">
      <stop offset="0" stop-color="#ffffff"/>
      <stop offset="1" stop-color="#eef8fb"/>
    </linearGradient>
    <filter id="shadow" x="-20%" y="-20%" width="140%" height="140%">
      <feDropShadow dx="0" dy="26" stdDeviation="28" flood-color="#0f172a" flood-opacity=".18"/>
    </filter>
  </defs>
  <rect width="1100" height="760" rx="42" fill="#f8fbff"/>
  <path d="M0 0 H1100 V236 C860 188 724 230 564 190 C334 134 180 112 0 174Z" fill="#eef6ff"/>
  <g transform="translate(76 70)" filter="url(#shadow)">
    <rect width="948" height="590" rx="36" fill="url(#panel)" stroke="#d7e6f0"/>
    <rect x="30" y="30" width="888" height="64" rx="18" fill="#152437"/>
    <g transform="translate(54 42) scale(.23)">
      <path d="M84 0 168 48v96l-84 48L0 144V48Z" fill="none" stroke="#35b5bb" stroke-width="17" stroke-linecap="round" stroke-linejoin="round"/>
      <path d="M62 72 38 96l24 24M106 72l24 24-24 24M92 60 76 132" fill="none" stroke="#35b5bb" stroke-width="17" stroke-linecap="round" stroke-linejoin="round"/>
    </g>
    <text x="108" y="70" fill="#fff" font-family="Sora, Inter, sans-serif" font-size="20" font-weight="900">Asistente ITESICWS</text>
    <rect x="704" y="46" width="178" height="32" rx="16" fill="#e5f7f6"/>
    <text x="742" y="67" fill="#155d75" font-family="Inter, Arial, sans-serif" font-size="13" font-weight="900">Modo seguro</text>
    <rect x="42" y="126" width="236" height="406" rx="24" fill="#edf3f8" stroke="#d9e6f0"/>
    <text x="72" y="172" fill="#152437" font-family="Sora, Inter, sans-serif" font-size="22" font-weight="900">Fuentes</text>
    <g font-family="Inter, Arial, sans-serif" font-size="14" font-weight="800">
      <rect x="72" y="210" width="166" height="58" rx="14" fill="#fff" stroke="#dbe7ef"/>
      <text x="94" y="244" fill="#152437">PDF internos</text>
      <rect x="72" y="294" width="166" height="58" rx="14" fill="#fff" stroke="#dbe7ef"/>
      <text x="94" y="328" fill="#152437">ERP / Stock</text>
      <rect x="72" y="378" width="166" height="58" rx="14" fill="#fff" stroke="#dbe7ef"/>
      <text x="94" y="412" fill="#152437">Power BI</text>
    </g>
    <rect x="316" y="126" width="560" height="406" rx="24" fill="#fff" stroke="#d9e6f0"/>
    <text x="348" y="172" fill="#152437" font-family="Sora, Inter, sans-serif" font-size="24" font-weight="900">Consulta trazable</text>
    <rect x="348" y="214" width="456" height="58" rx="16" fill="#f1f5f9" stroke="#dbe7ef"/>
    <text x="376" y="251" fill="#334155" font-family="Inter, Arial, sans-serif" font-size="16" font-weight="800">Que documentos respaldan este indicador?</text>
    <rect x="414" y="318" width="344" height="120" rx="20" fill="#152437"/>
    <text x="446" y="356" fill="#fff" font-family="Sora, Inter, sans-serif" font-size="17" font-weight="900">Respuesta del asistente</text>
    <text x="446" y="392" fill="#cbd5e1" font-family="Inter, Arial, sans-serif" font-size="14" font-weight="700">Encontramos 3 fuentes internas relacionadas,</text>
    <text x="446" y="416" fill="#cbd5e1" font-family="Inter, Arial, sans-serif" font-size="14" font-weight="700">con fecha, responsable y evidencia.</text>
    <rect x="446" y="446" width="136" height="28" rx="14" fill="#e5f7f6"/>
    <text x="478" y="464" fill="#155d75" font-family="Inter, Arial, sans-serif" font-size="12" font-weight="900">Ver evidencia</text>
    <g fill="#edf3f8" stroke="#d7e6f0">
      <rect x="348" y="474" width="144" height="40" rx="12"/>
      <rect x="518" y="474" width="144" height="40" rx="12"/>
      <rect x="688" y="474" width="144" height="40" rx="12"/>
    </g>
  </g>
</svg>
