<svg width="1180" height="720" viewBox="0 0 1180 720" fill="none" xmlns="http://www.w3.org/2000/svg">
  <!-- Outer Window Frame -->
  <rect width="1180" height="720" rx="20" fill="#F3F5F9"/>
  <rect x="1" y="1" width="1178" height="718" rx="19" fill="#F8FAFC" stroke="#E2E8F0" stroke-width="2"/>
  
  <!-- Browser Header Bar -->
  <rect x="2" y="2" width="1176" height="52" rx="18" fill="#FFFFFF"/>
  <rect x="2" y="53" width="1176" height="1" fill="#E2E8F0"/>
  
  <!-- Window Controls -->
  <circle cx="28" cy="26" r="6" fill="#EF4444"/>
  <circle cx="48" cy="26" r="6" fill="#F59E0B"/>
  <circle cx="68" cy="26" r="6" fill="#10B981"/>
  
  <!-- Address Bar -->
  <rect x="100" y="12" width="600" height="28" rx="14" fill="#F1F5F9"/>
  <text x="120" y="30" fill="#64748B" font-family="Inter, sans-serif" font-size="12" font-weight="500">app.itesic.cl/sistemas/balances</text>
  
  <!-- User/Status -->
  <rect x="1010" y="12" width="140" height="28" rx="14" fill="#F1F5F9"/>
  <circle cx="1024" cy="26" r="7" fill="#64748B"/>
  <text x="1040" y="30" fill="#475569" font-family="Inter, sans-serif" font-size="11" font-weight="700">F. Rubilar</text>

  <!-- Sidebar Container -->
  <rect x="2" y="54" width="220" height="664" fill="#FFFFFF"/>
  <rect x="221" y="54" width="1" height="664" fill="#E2E8F0"/>

  <!-- Logo -->
  <rect x="24" y="80" width="36" height="36" rx="8" fill="#2F6BFF"/>
  <text x="32" y="104" fill="#FFFFFF" font-family="Sora, sans-serif" font-size="18" font-weight="900">Ba</text>
  <text x="72" y="96" fill="#0F172A" font-family="Sora, sans-serif" font-size="15" font-weight="800">Balances</text>
  <text x="72" y="112" fill="#64748B" font-family="Inter, sans-serif" font-size="10" font-weight="600">Área de Trabajo</text>

  <!-- Sidebar Menu Items -->
  
    <rect x="12" y="146" width="196" height="34" rx="8" fill="#2F6BFF12"/>
    <circle cx="34" cy="160" r="4" fill="#2F6BFF"/>
    <text x="48" y="164" fill="#2F6BFF" font-family="Inter, sans-serif" font-size="13" font-weight="700">Diagramas</text>
    
    
    <circle cx="34" cy="202" r="4" fill="#94A3B8"/>
    <text x="48" y="206" fill="#475569" font-family="Inter, sans-serif" font-size="13" font-weight="600">KPI Balances</text>
    
    
    <circle cx="34" cy="244" r="4" fill="#94A3B8"/>
    <text x="48" y="248" fill="#475569" font-family="Inter, sans-serif" font-size="13" font-weight="600">Calidad</text>
    
    
    <circle cx="34" cy="286" r="4" fill="#94A3B8"/>
    <text x="48" y="290" fill="#475569" font-family="Inter, sans-serif" font-size="13" font-weight="600">PI Vision</text>
    
    
    <circle cx="34" cy="328" r="4" fill="#94A3B8"/>
    <text x="48" y="332" fill="#475569" font-family="Inter, sans-serif" font-size="13" font-weight="600">Historial</text>
    

  <!-- Main Content Area -->
  <g transform="translate(242, 74)">
    
  <!-- Top Title Bar -->
  <text x="20" y="40" fill="#0F172A" font-family="Sora, sans-serif" font-size="22" font-weight="800">Portal de Balances Operacionales</text>
  <text x="20" y="60" fill="#64748B" font-family="Inter, sans-serif" font-size="13" font-weight="500">Visualización de diagramas de balance metalúrgico e indicadores de continuidad</text>

  <!-- Flowchart nodes -->
  <g transform="translate(20, 90)">
    <rect x="0" y="0" width="860" height="500" rx="14" fill="#FFFFFF" stroke="#E2E8F0" stroke-width="1.5"/>
    <text x="24" y="36" fill="#0F172A" font-family="Sora, sans-serif" font-size="16" font-weight="800">Diagrama de Flujo y Nodos de Consistencia</text>

    <!-- Node 1: Entrada -->
    <rect x="40" y="180" width="140" height="80" rx="10" fill="#F8FAFC" stroke="#94A3B8" stroke-width="1.5"/>
    <text x="56" y="210" fill="#475569" font-family="Inter, sans-serif" font-size="11" font-weight="700">MATERIA PRIMA</text>
    <text x="56" y="240" fill="#0F172A" font-family="Sora, sans-serif" font-size="16" font-weight="800">12,000 Ton</text>

    <!-- Connector lines -->
    <path d="M180 220 L300 220" stroke="#94A3B8" stroke-width="4" stroke-dasharray="8 4" fill="none"/>

    <!-- Node 2: Concentrador -->
    <rect x="300" y="140" width="220" height="160" rx="14" fill="#2F6BFF12" stroke="#2F6BFF" stroke-width="2"/>
    <text x="320" y="176" fill="#2F6BFF" font-family="Inter, sans-serif" font-size="12" font-weight="800">PROCESO CONCENTRADOR</text>
    <text x="320" y="216" fill="#0F172A" font-family="Sora, sans-serif" font-size="24" font-weight="800">Rec. 92.4%</text>
    <text x="320" y="246" fill="#475569" font-family="Inter, sans-serif" font-size="11" font-weight="600">Consistencia: OK (100%)</text>
    <rect x="320" y="260" width="180" height="8" rx="4" fill="#E2E8F0"/>
    <rect x="320" y="260" width="166" height="8" rx="4" fill="#2F6BFF"/>

    <!-- Output lines -->
    <path d="M520 190 L680 140" stroke="#16B7A3" stroke-width="4" stroke-linecap="round" fill="none"/>
    <path d="M520 250 L680 300" stroke="#EF4444" stroke-width="4" stroke-linecap="round" fill="none"/>

    <!-- Node 3: Concentrado -->
    <rect x="680" y="100" width="140" height="80" rx="10" fill="#16B7A312" stroke="#16B7A3" stroke-width="1.5"/>
    <text x="696" y="130" fill="#16B7A3" font-family="Inter, sans-serif" font-size="11" font-weight="700">CONCENTRADO</text>
    <text x="696" y="160" fill="#0F172A" font-family="Sora, sans-serif" font-size="16" font-weight="800">1,108 Ton</text>

    <!-- Node 4: Relaves -->
    <rect x="680" y="260" width="140" height="80" rx="10" fill="#EF444412" stroke="#EF4444" stroke-width="1.5"/>
    <text x="696" y="290" fill="#EF4444" font-family="Inter, sans-serif" font-size="11" font-weight="700">RELAVES (WSTE)</text>
    <text x="696" y="320" fill="#0F172A" font-family="Sora, sans-serif" font-size="16" font-weight="800">10,892 Ton</text>

    <!-- Status footer in card -->
    <rect x="40" y="420" width="780" height="50" rx="8" fill="#F8FAFC" stroke="#E2E8F0"/>
    <text x="60" y="450" fill="#475569" font-family="Inter, sans-serif" font-size="12" font-weight="600">✓ Calidad de Información Base comprobada. Sin brechas de datos reportadas hoy.</text>
  </g>

  </g>
</svg>