<svg width="1180" height="720" viewBox="0 0 1180 720" fill="none" xmlns="http://www.w3.org/2000/svg">
  <!-- Outer Window Frame -->
  <rect width="1180" height="720" rx="20" fill="#F3F5F9"/>
  <rect x="1" y="1" width="1178" height="718" rx="19" fill="#F8FAFC" stroke="#E2E8F0" stroke-width="2"/>
  
  <!-- Browser Header Bar -->
  <rect x="2" y="2" width="1176" height="52" rx="18" fill="#FFFFFF"/>
  <rect x="2" y="53" width="1176" height="1" fill="#E2E8F0"/>
  
  <!-- Window Controls -->
  <circle cx="28" cy="26" r="6" fill="#EF4444"/>
  <circle cx="48" cy="26" r="6" fill="#F59E0B"/>
  <circle cx="68" cy="26" r="6" fill="#10B981"/>
  
  <!-- Address Bar -->
  <rect x="100" y="12" width="600" height="28" rx="14" fill="#F1F5F9"/>
  <text x="120" y="30" fill="#64748B" font-family="Inter, sans-serif" font-size="12" font-weight="500">app.itesic.cl/sistemas/calibraciones</text>
  
  <!-- User/Status -->
  <rect x="1010" y="12" width="140" height="28" rx="14" fill="#F1F5F9"/>
  <circle cx="1024" cy="26" r="7" fill="#64748B"/>
  <text x="1040" y="30" fill="#475569" font-family="Inter, sans-serif" font-size="11" font-weight="700">Usuario</text>

  <!-- Sidebar Container -->
  <rect x="2" y="54" width="220" height="664" fill="#FFFFFF"/>
  <rect x="221" y="54" width="1" height="664" fill="#E2E8F0"/>

  <!-- Logo -->
  <rect x="24" y="80" width="36" height="36" rx="8" fill="#10B981"/>
  <text x="32" y="104" fill="#FFFFFF" font-family="Sora, sans-serif" font-size="18" font-weight="900">Ca</text>
  <text x="72" y="96" fill="#0F172A" font-family="Sora, sans-serif" font-size="15" font-weight="800">Calibraciones</text>
  <text x="72" y="112" fill="#64748B" font-family="Inter, sans-serif" font-size="10" font-weight="600">Área de Trabajo</text>

  <!-- Sidebar Menu Items -->
  
    <rect x="12" y="146" width="196" height="34" rx="8" fill="#10B98112"/>
    <circle cx="34" cy="160" r="4" fill="#10B981"/>
    <text x="48" y="164" fill="#10B981" font-family="Inter, sans-serif" font-size="13" font-weight="700">Calibraciones</text>
    
    
    <circle cx="34" cy="202" r="4" fill="#94A3B8"/>
    <text x="48" y="206" fill="#475569" font-family="Inter, sans-serif" font-size="13" font-weight="600">Equipos</text>
    
    
    <circle cx="34" cy="244" r="4" fill="#94A3B8"/>
    <text x="48" y="248" fill="#475569" font-family="Inter, sans-serif" font-size="13" font-weight="600">Programas</text>
    
    
    <circle cx="34" cy="286" r="4" fill="#94A3B8"/>
    <text x="48" y="290" fill="#475569" font-family="Inter, sans-serif" font-size="13" font-weight="600">Evidencias</text>
    
    
    <circle cx="34" cy="328" r="4" fill="#94A3B8"/>
    <text x="48" y="332" fill="#475569" font-family="Inter, sans-serif" font-size="13" font-weight="600">Auditoría</text>
    

  <!-- Main Content Area -->
  <g transform="translate(242, 74)">
    
  <!-- Top Title Bar -->
  <text x="20" y="40" fill="#0F172A" font-family="Sora, sans-serif" font-size="22" font-weight="800">Sistema de Calibraciones Industriales</text>
  <text x="20" y="60" fill="#64748B" font-family="Inter, sans-serif" font-size="13" font-weight="500">Monitoreo de equipos, validación de tolerancias y envíos a PI Web API</text>
  
  <!-- Metric Cards -->
  <g transform="translate(20, 90)">
    <!-- OEE Card -->
    <rect x="0" y="0" width="200" height="90" rx="12" fill="#FFFFFF" stroke="#E2E8F0" stroke-width="1.5"/>
    <text x="16" y="28" fill="#64748B" font-family="Inter, sans-serif" font-size="11" font-weight="700" text-transform="uppercase">Equipos Registrados</text>
    <text x="16" y="64" fill="#0F172A" font-family="Sora, sans-serif" font-size="28" font-weight="800">342</text>
    <text x="160" y="60" fill="#10B981" font-family="Inter, sans-serif" font-size="14" font-weight="800">✓</text>

    <!-- Stock Card -->
    <rect x="220" y="0" width="200" height="90" rx="12" fill="#FFFFFF" stroke="#E2E8F0" stroke-width="1.5"/>
    <text x="236" y="28" fill="#64748B" font-family="Inter, sans-serif" font-size="11" font-weight="700" text-transform="uppercase">Calibraciones del Mes</text>
    <text x="236" y="64" fill="#0F172A" font-family="Sora, sans-serif" font-size="28" font-weight="800">48 / 52</text>

    <!-- Despachos Card -->
    <rect x="440" y="0" width="200" height="90" rx="12" fill="#FFFFFF" stroke="#E2E8F0" stroke-width="1.5"/>
    <text x="456" y="28" fill="#64748B" font-family="Inter, sans-serif" font-size="11" font-weight="700" text-transform="uppercase">Monitor de Envíos PI</text>
    <text x="456" y="64" fill="#10B981" font-family="Sora, sans-serif" font-size="24" font-weight="800">Conectado</text>
    <circle cx="585" cy="56" r="6" fill="#10B981"/>
  </g>

  <!-- Calibration Logs -->
  <g transform="translate(20, 210)">
    <rect x="0" y="0" width="860" height="380" rx="14" fill="#FFFFFF" stroke="#E2E8F0" stroke-width="1.5"/>
    <text x="20" y="32" fill="#0F172A" font-family="Sora, sans-serif" font-size="16" font-weight="800">Plan de Calibración Semanal</text>
    
    <!-- Table Header -->
    <rect x="20" y="54" width="820" height="34" rx="6" fill="#F8FAFC"/>
    <text x="36" y="76" fill="#475569" font-family="Inter, sans-serif" font-size="11" font-weight="700">INSTRUMENTO</text>
    <text x="220" y="76" fill="#475569" font-family="Inter, sans-serif" font-size="11" font-weight="700">DIVISION</text>
    <text x="380" y="76" fill="#475569" font-family="Inter, sans-serif" font-size="11" font-weight="700">VALOR ESPERADO</text>
    <text x="540" y="76" fill="#475569" font-family="Inter, sans-serif" font-size="11" font-weight="700">VALOR LEÍDO</text>
    <text x="680" y="76" fill="#475569" font-family="Inter, sans-serif" font-size="11" font-weight="700">ESTADO</text>

    <!-- Table Rows -->
    
      <text x="36" y="120" fill="#0F172A" font-family="Inter, sans-serif" font-size="12" font-weight="700">Manómetro Presión M1</text>
      <text x="220" y="120" fill="#475569" font-family="Inter, sans-serif" font-size="12" font-weight="600">División Flotación</text>
      <text x="380" y="120" fill="#475569" font-family="Inter, sans-serif" font-size="12" font-weight="600">150.0 PSI</text>
      <text x="540" y="120" fill="#0F172A" font-family="Inter, sans-serif" font-size="12" font-weight="700">149.8 PSI</text>
      <rect x="680" y="104" width="100" height="22" rx="11" fill="#10B9811A"/>
      <text x="692" y="119" fill="#10B981" font-family="Inter, sans-serif" font-size="11" font-weight="700">Aprobado</text>
      <line x1="20" y1="138" x2="840" y2="138" stroke="#F1F5F9" stroke-width="1"/>
      
      <text x="36" y="170" fill="#0F172A" font-family="Inter, sans-serif" font-size="12" font-weight="700">Flujómetro Magnético F2</text>
      <text x="220" y="170" fill="#475569" font-family="Inter, sans-serif" font-size="12" font-weight="600">División Relaves</text>
      <text x="380" y="170" fill="#475569" font-family="Inter, sans-serif" font-size="12" font-weight="600">45.0 L/s</text>
      <text x="540" y="170" fill="#0F172A" font-family="Inter, sans-serif" font-size="12" font-weight="700">45.1 L/s</text>
      <rect x="680" y="154" width="100" height="22" rx="11" fill="#10B9811A"/>
      <text x="692" y="169" fill="#10B981" font-family="Inter, sans-serif" font-size="11" font-weight="700">Aprobado</text>
      <line x1="20" y1="188" x2="840" y2="188" stroke="#F1F5F9" stroke-width="1"/>
      
      <text x="36" y="220" fill="#0F172A" font-family="Inter, sans-serif" font-size="12" font-weight="700">Sensor Temperatura T4</text>
      <text x="220" y="220" fill="#475569" font-family="Inter, sans-serif" font-size="12" font-weight="600">División Fundición</text>
      <text x="380" y="220" fill="#475569" font-family="Inter, sans-serif" font-size="12" font-weight="600">1200 °C</text>
      <text x="540" y="220" fill="#0F172A" font-family="Inter, sans-serif" font-size="12" font-weight="700">1202 °C</text>
      <rect x="680" y="204" width="100" height="22" rx="11" fill="#10B9811A"/>
      <text x="692" y="219" fill="#10B981" font-family="Inter, sans-serif" font-size="11" font-weight="700">Aprobado</text>
      <line x1="20" y1="238" x2="840" y2="238" stroke="#F1F5F9" stroke-width="1"/>
      
      <text x="36" y="270" fill="#0F172A" font-family="Inter, sans-serif" font-size="12" font-weight="700">Pesómetro de Faja P1</text>
      <text x="220" y="270" fill="#475569" font-family="Inter, sans-serif" font-size="12" font-weight="600">División Chancado</text>
      <text x="380" y="270" fill="#475569" font-family="Inter, sans-serif" font-size="12" font-weight="600">320.0 Tph</text>
      <text x="540" y="270" fill="#0F172A" font-family="Inter, sans-serif" font-size="12" font-weight="700">315.2 Tph</text>
      <rect x="680" y="254" width="100" height="22" rx="11" fill="#EF44441A"/>
      <text x="692" y="269" fill="#EF4444" font-family="Inter, sans-serif" font-size="11" font-weight="700">Desviación</text>
      <line x1="20" y1="288" x2="840" y2="288" stroke="#F1F5F9" stroke-width="1"/>
      
      <text x="36" y="320" fill="#0F172A" font-family="Inter, sans-serif" font-size="12" font-weight="700">Medidor de pH S3</text>
      <text x="220" y="320" fill="#475569" font-family="Inter, sans-serif" font-size="12" font-weight="600">División Espesado</text>
      <text x="380" y="320" fill="#475569" font-family="Inter, sans-serif" font-size="12" font-weight="600">7.40 pH</text>
      <text x="540" y="320" fill="#0F172A" font-family="Inter, sans-serif" font-size="12" font-weight="700">—</text>
      <rect x="680" y="304" width="100" height="22" rx="11" fill="#F59E0B1A"/>
      <text x="692" y="319" fill="#F59E0B" font-family="Inter, sans-serif" font-size="11" font-weight="700">Pendiente</text>
      <line x1="20" y1="338" x2="840" y2="338" stroke="#F1F5F9" stroke-width="1"/>
      
  </g>

  </g>
</svg>
