<svg width="1180" height="720" viewBox="0 0 1180 720" fill="none" xmlns="http://www.w3.org/2000/svg">
  <!-- Outer Window Frame -->
  <rect width="1180" height="720" rx="20" fill="#F3F5F9"/>
  <rect x="1" y="1" width="1178" height="718" rx="19" fill="#F8FAFC" stroke="#E2E8F0" stroke-width="2"/>
  
  <!-- Browser Header Bar -->
  <rect x="2" y="2" width="1176" height="52" rx="18" fill="#FFFFFF"/>
  <rect x="2" y="53" width="1176" height="1" fill="#E2E8F0"/>
  
  <!-- Window Controls -->
  <circle cx="28" cy="26" r="6" fill="#EF4444"/>
  <circle cx="48" cy="26" r="6" fill="#F59E0B"/>
  <circle cx="68" cy="26" r="6" fill="#10B981"/>
  
  <!-- Address Bar -->
  <rect x="100" y="12" width="600" height="28" rx="14" fill="#F1F5F9"/>
  <text x="120" y="30" fill="#64748B" font-family="Inter, sans-serif" font-size="12" font-weight="500">app.itesic.cl/sistemas/opms-caitán</text>
  
  <!-- User/Status -->
  <rect x="1010" y="12" width="140" height="28" rx="14" fill="#F1F5F9"/>
  <circle cx="1024" cy="26" r="7" fill="#64748B"/>
  <text x="1040" y="30" fill="#475569" font-family="Inter, sans-serif" font-size="11" font-weight="700">F. Rubilar</text>

  <!-- Sidebar Container -->
  <rect x="2" y="54" width="220" height="664" fill="#FFFFFF"/>
  <rect x="221" y="54" width="1" height="664" fill="#E2E8F0"/>

  <!-- Logo -->
  <rect x="24" y="80" width="36" height="36" rx="8" fill="#2F6BFF"/>
  <text x="32" y="104" fill="#FFFFFF" font-family="Sora, sans-serif" font-size="18" font-weight="900">OP</text>
  <text x="72" y="96" fill="#0F172A" font-family="Sora, sans-serif" font-size="15" font-weight="800">OPMS</text>
  <text x="72" y="112" fill="#64748B" font-family="Inter, sans-serif" font-size="10" font-weight="600">Área de Trabajo</text>

  <!-- Sidebar Menu Items -->
  
    <rect x="12" y="146" width="196" height="34" rx="8" fill="#2F6BFF12"/>
    <circle cx="34" cy="160" r="4" fill="#2F6BFF"/>
    <text x="48" y="164" fill="#2F6BFF" font-family="Inter, sans-serif" font-size="13" font-weight="700">Nominaciones</text>
    
    
    <circle cx="34" cy="202" r="4" fill="#94A3B8"/>
    <text x="48" y="206" fill="#475569" font-family="Inter, sans-serif" font-size="13" font-weight="600">Proformas</text>
    
    
    <circle cx="34" cy="244" r="4" fill="#94A3B8"/>
    <text x="48" y="248" fill="#475569" font-family="Inter, sans-serif" font-size="13" font-weight="600">Documental</text>
    
    
    <circle cx="34" cy="286" r="4" fill="#94A3B8"/>
    <text x="48" y="290" fill="#475569" font-family="Inter, sans-serif" font-size="13" font-weight="600">Transacciones</text>
    
    
    <circle cx="34" cy="328" r="4" fill="#94A3B8"/>
    <text x="48" y="332" fill="#475569" font-family="Inter, sans-serif" font-size="13" font-weight="600">Reportes</text>
    

  <!-- Main Content Area -->
  <g transform="translate(242, 74)">
    
  <!-- Top Title Bar -->
  <text x="20" y="40" fill="#0F172A" font-family="Sora, sans-serif" font-size="22" font-weight="800">OPMS Caitán — Nominaciones y Proformas</text>
  <text x="20" y="60" fill="#64748B" font-family="Inter, sans-serif" font-size="13" font-weight="500">Suite web de control comercial, flujo de aprobaciones y gestor documental</text>

  <!-- OPMS tables -->
  <g transform="translate(20, 90)">
    <rect x="0" y="0" width="860" height="500" rx="14" fill="#FFFFFF" stroke="#E2E8F0" stroke-width="1.5"/>
    <text x="24" y="36" fill="#0F172A" font-family="Sora, sans-serif" font-size="16" font-weight="800">Nominaciones por Período Comercial</text>
    
    <!-- Table Header -->
    <rect x="20" y="60" width="820" height="34" rx="6" fill="#F8FAFC"/>
    <text x="36" y="82" fill="#475569" font-family="Inter, sans-serif" font-size="11" font-weight="700">PROYECTO / CONTRATO</text>
    <text x="240" y="82" fill="#475569" font-family="Inter, sans-serif" font-size="11" font-weight="700">TIPO NOMINACIÓN</text>
    <text x="440" y="82" fill="#475569" font-family="Inter, sans-serif" font-size="11" font-weight="700">PERÍODO</text>
    <text x="580" y="82" fill="#475569" font-family="Inter, sans-serif" font-size="11" font-weight="700">MONTO ESTIMADO</text>
    <text x="710" y="82" fill="#475569" font-family="Inter, sans-serif" font-size="11" font-weight="700">ESTADO</text>

    <!-- Table Rows -->
    
      <text x="36" y="126" fill="#0F172A" font-family="Inter, sans-serif" font-size="12" font-weight="700">Servicio Transporte Relaves</text>
      <text x="240" y="126" fill="#475569" font-family="Inter, sans-serif" font-size="12" font-weight="600">Diaria</text>
      <text x="440" y="126" fill="#475569" font-family="Inter, sans-serif" font-size="12" font-weight="600">03 Jun 2026</text>
      <text x="580" y="126" fill="#0F172A" font-family="Inter, sans-serif" font-size="12" font-weight="700">$12,450 USD</text>
      <rect x="710" y="110" width="120" height="22" rx="11" fill="#10B9811A"/>
      <text x="770" y="125" fill="#10B981" font-family="Inter, sans-serif" font-size="10.5" font-weight="800" text-anchor="middle">Aprobado CMPC</text>
      <line x1="20" y1="146" x2="840" y2="146" stroke="#F1F5F9" stroke-width="1"/>
      
      <text x="36" y="180" fill="#0F172A" font-family="Inter, sans-serif" font-size="12" font-weight="700">Suministro Energía Planta B</text>
      <text x="240" y="180" fill="#475569" font-family="Inter, sans-serif" font-size="12" font-weight="600">Semanal</text>
      <text x="440" y="180" fill="#475569" font-family="Inter, sans-serif" font-size="12" font-weight="600">Semana 23</text>
      <text x="580" y="180" fill="#0F172A" font-family="Inter, sans-serif" font-size="12" font-weight="700">$45,000 USD</text>
      <rect x="710" y="164" width="120" height="22" rx="11" fill="#10B9811A"/>
      <text x="770" y="179" fill="#10B981" font-family="Inter, sans-serif" font-size="10.5" font-weight="800" text-anchor="middle">Aprobado CMPC</text>
      <line x1="20" y1="200" x2="840" y2="200" stroke="#F1F5F9" stroke-width="1"/>
      
      <text x="36" y="234" fill="#0F172A" font-family="Inter, sans-serif" font-size="12" font-weight="700">Obras Civiles Fundición</text>
      <text x="240" y="234" fill="#475569" font-family="Inter, sans-serif" font-size="12" font-weight="600">Mensual</text>
      <text x="440" y="234" fill="#475569" font-family="Inter, sans-serif" font-size="12" font-weight="600">Junio 2026</text>
      <text x="580" y="234" fill="#0F172A" font-family="Inter, sans-serif" font-size="12" font-weight="700">$180,000 USD</text>
      <rect x="710" y="218" width="120" height="22" rx="11" fill="#F59E0B1A"/>
      <text x="770" y="233" fill="#F59E0B" font-family="Inter, sans-serif" font-size="10.5" font-weight="800" text-anchor="middle">Pendiente Firma</text>
      <line x1="20" y1="254" x2="840" y2="254" stroke="#F1F5F9" stroke-width="1"/>
      
      <text x="36" y="288" fill="#0F172A" font-family="Inter, sans-serif" font-size="12" font-weight="700">Mantenimiento Chancadora C1</text>
      <text x="240" y="288" fill="#475569" font-family="Inter, sans-serif" font-size="12" font-weight="600">Diaria</text>
      <text x="440" y="288" fill="#475569" font-family="Inter, sans-serif" font-size="12" font-weight="600">02 Jun 2026</text>
      <text x="580" y="288" fill="#0F172A" font-family="Inter, sans-serif" font-size="12" font-weight="700">$8,900 USD</text>
      <rect x="710" y="272" width="120" height="22" rx="11" fill="#3B82F61A"/>
      <text x="770" y="287" fill="#3B82F6" font-family="Inter, sans-serif" font-size="10.5" font-weight="800" text-anchor="middle">Facturado</text>
      <line x1="20" y1="308" x2="840" y2="308" stroke="#F1F5F9" stroke-width="1"/>
      
      <text x="36" y="342" fill="#0F172A" font-family="Inter, sans-serif" font-size="12" font-weight="700">Soporte Ambiental CMPC</text>
      <text x="240" y="342" fill="#475569" font-family="Inter, sans-serif" font-size="12" font-weight="600">Semanal</text>
      <text x="440" y="342" fill="#475569" font-family="Inter, sans-serif" font-size="12" font-weight="600">Semana 22</text>
      <text x="580" y="342" fill="#0F172A" font-family="Inter, sans-serif" font-size="12" font-weight="700">$15,000 USD</text>
      <rect x="710" y="326" width="120" height="22" rx="11" fill="#64748B1A"/>
      <text x="770" y="341" fill="#64748B" font-family="Inter, sans-serif" font-size="10.5" font-weight="800" text-anchor="middle">Cerrado</text>
      <line x1="20" y1="362" x2="840" y2="362" stroke="#F1F5F9" stroke-width="1"/>
      
  </g>

  </g>
</svg>