<svg width="1180" height="720" viewBox="0 0 1180 720" fill="none" xmlns="http://www.w3.org/2000/svg">
  <!-- Outer Window Frame -->
  <rect width="1180" height="720" rx="20" fill="#F3F5F9"/>
  <rect x="1" y="1" width="1178" height="718" rx="19" fill="#F8FAFC" stroke="#E2E8F0" stroke-width="2"/>
  
  <!-- Browser Header Bar -->
  <rect x="2" y="2" width="1176" height="52" rx="18" fill="#FFFFFF"/>
  <rect x="2" y="53" width="1176" height="1" fill="#E2E8F0"/>
  
  <!-- Window Controls -->
  <circle cx="28" cy="26" r="6" fill="#EF4444"/>
  <circle cx="48" cy="26" r="6" fill="#F59E0B"/>
  <circle cx="68" cy="26" r="6" fill="#10B981"/>
  
  <!-- Address Bar -->
  <rect x="100" y="12" width="600" height="28" rx="14" fill="#F1F5F9"/>
  <text x="120" y="30" fill="#64748B" font-family="Inter, sans-serif" font-size="12" font-weight="500">app.itesic.cl/sistemas/forms</text>
  
  <!-- User/Status -->
  <rect x="1010" y="12" width="140" height="28" rx="14" fill="#F1F5F9"/>
  <circle cx="1024" cy="26" r="7" fill="#64748B"/>
  <text x="1040" y="30" fill="#475569" font-family="Inter, sans-serif" font-size="11" font-weight="700">F. Rubilar</text>

  <!-- Sidebar Container -->
  <rect x="2" y="54" width="220" height="664" fill="#FFFFFF"/>
  <rect x="221" y="54" width="1" height="664" fill="#E2E8F0"/>

  <!-- Logo -->
  <rect x="24" y="80" width="36" height="36" rx="8" fill="#2563EB"/>
  <text x="32" y="104" fill="#FFFFFF" font-family="Sora, sans-serif" font-size="18" font-weight="900">FO</text>
  <text x="72" y="96" fill="#0F172A" font-family="Sora, sans-serif" font-size="15" font-weight="800">FORMS</text>
  <text x="72" y="112" fill="#64748B" font-family="Inter, sans-serif" font-size="10" font-weight="600">Área de Trabajo</text>

  <!-- Sidebar Menu Items -->
  
    <rect x="12" y="146" width="196" height="34" rx="8" fill="#2563EB12"/>
    <circle cx="34" cy="160" r="4" fill="#2563EB"/>
    <text x="48" y="164" fill="#2563EB" font-family="Inter, sans-serif" font-size="13" font-weight="700">Formularios</text>
    
    
    <circle cx="34" cy="202" r="4" fill="#94A3B8"/>
    <text x="48" y="206" fill="#475569" font-family="Inter, sans-serif" font-size="13" font-weight="600">Respuestas</text>
    
    
    <circle cx="34" cy="244" r="4" fill="#94A3B8"/>
    <text x="48" y="248" fill="#475569" font-family="Inter, sans-serif" font-size="13" font-weight="600">Aprobaciones</text>
    
    
    <circle cx="34" cy="286" r="4" fill="#94A3B8"/>
    <text x="48" y="290" fill="#475569" font-family="Inter, sans-serif" font-size="13" font-weight="600">Exportar</text>
    
    
    <circle cx="34" cy="328" r="4" fill="#94A3B8"/>
    <text x="48" y="332" fill="#475569" font-family="Inter, sans-serif" font-size="13" font-weight="600">Ajustes</text>
    

  <!-- Main Content Area -->
  <g transform="translate(242, 74)">
    
  <text x="20" y="40" fill="#0F172A" font-family="Sora, sans-serif" font-size="22" font-weight="800">FORMS — Formularios Digitales</text>
  <text x="20" y="60" fill="#64748B" font-family="Inter, sans-serif" font-size="13" font-weight="500">Diseño responsivo para captura de datos en terreno, sin papel</text>
  
  <g transform="translate(180, 90)">
    <!-- Smartphone Frame -->
    <rect x="0" y="0" width="300" height="500" rx="36" fill="#111827" stroke="#374151" stroke-width="6"/>
    <rect x="80" y="10" width="140" height="20" rx="10" fill="#000000"/>
    
    <!-- Phone Screen Content -->
    <rect x="10" y="38" width="280" height="452" rx="28" fill="#F8FAFC"/>
    
    <!-- Screen Header -->
    <text x="26" y="74" fill="#0F172A" font-family="Sora, sans-serif" font-size="15" font-weight="800">Checklist de Terreno</text>
    <text x="26" y="90" fill="#64748B" font-family="Inter, sans-serif" font-size="10" font-weight="500">Inspección de Seguridad Diaria</text>
    
    <!-- Form Inputs -->
    <g transform="translate(26, 110)">
      <text x="0" y="15" fill="#475569" font-family="Inter, sans-serif" font-size="11" font-weight="700">Supervisor de Turno</text>
      <rect x="0" y="22" width="228" height="32" rx="6" fill="#FFFFFF" stroke="#CBD5E1"/>
      <text x="10" y="42" fill="#0F172A" font-family="Inter, sans-serif" font-size="12" font-weight="600">Francisco Rubilar</text>
      
      <!-- Checkbox Group -->
      <g transform="translate(0, 70)">
        <rect x="0" y="0" width="16" height="16" rx="4" fill="#10B981"/>
        <text x="8" y="12" fill="#FFFFFF" font-family="Inter, sans-serif" font-size="10" font-weight="900" text-anchor="middle">✓</text>
        <text x="26" y="13" fill="#0F172A" font-family="Inter, sans-serif" font-size="11" font-weight="600">EPPs inspeccionados y aptos</text>
        
        <rect x="0" y="28" width="16" height="16" rx="4" fill="#10B981"/>
        <text x="8" y="40" fill="#FFFFFF" font-family="Inter, sans-serif" font-size="10" font-weight="900" text-anchor="middle">✓</text>
        <text x="26" y="41" fill="#0F172A" font-family="Inter, sans-serif" font-size="11" font-weight="600">Vías de escape despejadas</text>
        
        <rect x="0" y="56" width="16" height="16" rx="4" fill="#FFFFFF" stroke="#CBD5E1"/>
        <text x="26" y="69" fill="#0F172A" font-family="Inter, sans-serif" font-size="11" font-weight="600">Luces de emergencia operativas</text>
      </g>
      
      <!-- Signature Area -->
      <g transform="translate(0, 166)">
        <text x="0" y="15" fill="#475569" font-family="Inter, sans-serif" font-size="11" font-weight="700">Firma Digital</text>
        <rect x="0" y="22" width="228" height="60" rx="8" fill="#FFFFFF" stroke="#CBD5E1"/>
        <!-- Handwritten line vector -->
        <path d="M20 54 C35 34, 60 74, 90 44 C120 24, 150 74, 200 44" stroke="#2563EB" stroke-width="2" stroke-linecap="round" fill="none"/>
      </g>

      <!-- Submit button -->
      <rect x="0" y="260" width="228" height="36" rx="18" fill="#2F6BFF"/>
      <text x="114" y="282" fill="#FFFFFF" font-family="Inter, sans-serif" font-size="12" font-weight="800" text-anchor="middle">Enviar Checklist →</text>
    </g>
  </g>

  <!-- Side info card -->
  <g transform="translate(520, 150)">
    <rect x="0" y="0" width="340" height="240" rx="16" fill="#FFFFFF" stroke="#E2E8F0" stroke-width="1.5"/>
    <text x="24" y="36" fill="#0F172A" font-family="Sora, sans-serif" font-size="16" font-weight="800">Administrador de Formularios</text>
    <text x="24" y="62" fill="#64748B" font-family="Inter, sans-serif" font-size="13" font-weight="500" width="290">El constructor visual te permite habilitar:</text>
    
    <text x="24" y="100" fill="#10B981" font-family="Inter, sans-serif" font-size="14" font-weight="900">✓</text>
    <text x="44" y="99" fill="#475569" font-family="Inter, sans-serif" font-size="13" font-weight="600">Firmas biométricas y digitales</text>
    
    <text x="24" y="130" fill="#10B981" font-family="Inter, sans-serif" font-size="14" font-weight="900">✓</text>
    <text x="44" y="129" fill="#475569" font-family="Inter, sans-serif" font-size="13" font-weight="600">Registro georreferenciado (GPS)</text>
    
    <text x="24" y="160" fill="#10B981" font-family="Inter, sans-serif" font-size="14" font-weight="900">✓</text>
    <text x="44" y="159" fill="#475569" font-family="Inter, sans-serif" font-size="13" font-weight="600">Subida de fotografías en terreno</text>
  </g>

  </g>
</svg>