<svg width="512" height="512" viewBox="0 0 512 512" fill="none" xmlns="http://www.w3.org/2000/svg">
  <defs>
    <linearGradient id="itesicGradient" x1="86" y1="76" x2="426" y2="436" gradientUnits="userSpaceOnUse">
      <stop stop-color="#2F6BFF"/>
      <stop offset="0.55" stop-color="#10D5D0"/>
      <stop offset="1" stop-color="#6D5BFF"/>
    </linearGradient>
    <linearGradient id="itesicGlow" x1="110" y1="106" x2="402" y2="406" gradientUnits="userSpaceOnUse">
      <stop stop-color="#7DD3FF" stop-opacity="0.95"/>
      <stop offset="1" stop-color="#2F6BFF" stop-opacity="0.2"/>
    </linearGradient>
    <filter id="shadow" x="24" y="24" width="464" height="464" filterUnits="userSpaceOnUse" color-interpolation-filters="sRGB">
      <feDropShadow dx="0" dy="20" stdDeviation="22" flood-color="#2563EB" flood-opacity="0.25"/>
    </filter>
  </defs>

  <rect x="64" y="64" width="384" height="384" rx="104" fill="#071326"/>
  <rect x="64" y="64" width="384" height="384" rx="104" fill="url(#itesicGradient)" opacity="0.12"/>

  <g filter="url(#shadow)">
    <path d="M142 262.5C137.6 258.1 137.6 250.9 142 246.5L209.5 179C215.8 172.7 226.5 177.2 226.5 186.1V225.5C226.5 228.4 225.3 231.2 223.3 233.3L200.6 256L223.3 278.7C225.3 280.8 226.5 283.6 226.5 286.5V325.9C226.5 334.8 215.8 339.3 209.5 333L142 262.5Z" fill="url(#itesicGradient)"/>
    <path d="M370 246.5C374.4 250.9 374.4 258.1 370 262.5L302.5 333C296.2 339.3 285.5 334.8 285.5 325.9V286.5C285.5 283.6 286.7 280.8 288.7 278.7L311.4 256L288.7 233.3C286.7 231.2 285.5 228.4 285.5 225.5V186.1C285.5 177.2 296.2 172.7 302.5 179L370 246.5Z" fill="url(#itesicGradient)"/>
    <path d="M253.7 154.7C258.7 145.2 273 149.2 272.4 159.9L261.5 352.1C260.9 362.8 246.5 365.1 242.7 355.1L231.9 326.5C230.9 323.8 230.9 320.8 232.1 318.2L256.9 263.9L235.7 212.4C234.6 209.8 234.8 206.8 236.1 204.3L253.7 154.7Z" fill="url(#itesicGlow)"/>
  </g>

  <circle cx="256" cy="256" r="164" stroke="#38BDF8" stroke-opacity="0.18" stroke-width="2"/>
  <circle cx="256" cy="256" r="116" stroke="#10D5D0" stroke-opacity="0.13" stroke-width="2"/>
</svg>
