<svg width="1180" height="720" viewBox="0 0 1180 720" fill="none" xmlns="http://www.w3.org/2000/svg">
<rect width="1180" height="720" rx="46" fill="#F7FAFF"/>
<rect x="32" y="32" width="1116" height="656" rx="34" fill="white" stroke="#DCE6F5" stroke-width="2"/>
<rect x="66" y="70" width="1048" height="72" rx="22" fill="#111827"/>
<circle cx="104" cy="106" r="9" fill="#FF6B6B"/>
<circle cx="132" cy="106" r="9" fill="#FFD166"/>
<circle cx="160" cy="106" r="9" fill="#21C7A8"/>
<rect x="214" y="94" width="190" height="24" rx="12" fill="white" opacity=".18"/>
<rect x="910" y="90" width="146" height="32" rx="16" fill="#2F6BFF"/>
<rect x="66" y="172" width="230" height="456" rx="28" fill="#F0F5FF"/>
<rect x="98" y="204" width="126" height="18" rx="9" fill="#2F6BFF"/>
<rect x="98" y="256" width="160" height="14" rx="7" fill="#9AA8BD"/>
<rect x="98" y="296" width="132" height="14" rx="7" fill="#9AA8BD"/>
<rect x="98" y="336" width="178" height="14" rx="7" fill="#9AA8BD"/>
<rect x="98" y="376" width="118" height="14" rx="7" fill="#9AA8BD"/>
<rect x="98" y="476" width="158" height="86" rx="18" fill="white" stroke="#DCE6F5"/>
<path d="M120 528C145 492 171 546 200 508C222 480 238 506 256 488" stroke="#16B7A3" stroke-width="8" stroke-linecap="round"/>
<rect x="326" y="172" width="250" height="164" rx="28" fill="#2F6BFF"/>
<rect x="362" y="208" width="86" height="16" rx="8" fill="white" opacity=".72"/>
<rect x="362" y="252" width="154" height="42" rx="21" fill="white" opacity=".22"/>
<path d="M362 306H536" stroke="white" stroke-width="10" stroke-linecap="round" opacity=".42"/>
<rect x="606" y="172" width="226" height="164" rx="28" fill="#111827"/>
<rect x="642" y="208" width="108" height="16" rx="8" fill="white" opacity=".7"/>
<rect x="642" y="254" width="52" height="52" rx="16" fill="#16B7A3"/>
<rect x="710" y="254" width="52" height="52" rx="16" fill="#FFD166"/>
<rect x="778" y="254" width="28" height="52" rx="14" fill="white" opacity=".22"/>
<rect x="862" y="172" width="252" height="164" rx="28" fill="#EAF0FF"/>
<rect x="898" y="208" width="108" height="16" rx="8" fill="#2F6BFF"/>
<circle cx="940" cy="280" r="34" fill="#2F6BFF" opacity=".22"/>
<circle cx="1000" cy="280" r="34" fill="#16B7A3" opacity=".25"/>
<circle cx="1060" cy="280" r="34" fill="#FFD166" opacity=".38"/>
<rect x="326" y="372" width="514" height="256" rx="30" fill="#F7FAFF" stroke="#DCE6F5"/>
<rect x="362" y="410" width="150" height="18" rx="9" fill="#111827"/>
<rect x="362" y="462" width="420" height="12" rx="6" fill="#DCE6F5"/>
<rect x="362" y="514" width="420" height="12" rx="6" fill="#DCE6F5"/>
<rect x="362" y="566" width="420" height="12" rx="6" fill="#DCE6F5"/>
<path d="M372 560C438 496 492 542 546 482C612 409 680 540 752 438" stroke="#2F6BFF" stroke-width="12" stroke-linecap="round"/>
<path d="M372 590C428 552 492 578 552 536C628 482 674 582 778 508" stroke="#16B7A3" stroke-width="10" stroke-linecap="round" opacity=".78"/>
<rect x="870" y="372" width="244" height="256" rx="30" fill="#111827"/>
<rect x="906" y="410" width="106" height="18" rx="9" fill="white" opacity=".74"/>
<rect x="906" y="466" width="172" height="18" rx="9" fill="white" opacity=".16"/>
<rect x="906" y="506" width="138" height="18" rx="9" fill="white" opacity=".16"/>
<rect x="906" y="546" width="154" height="18" rx="9" fill="white" opacity=".16"/>
<rect x="906" y="584" width="128" height="20" rx="10" fill="#16B7A3"/>
</svg>
